[img]http://img824.imageshack.us/img824/5460/hereafterl.jpg[/img]



[img]http://leetleech.org/images/48874973695367351744.png[/img]


ormat                           : AVI
Format/Info                      : Audio Video Interleave
File size                        : 1.30 GiB
Duration                         : 2h 9mn
Overall bit rate                 : 1 442 Kbps
Writing library                  : VirtualDub build 32839/release

Video
ID                               : 0
Format                           : MPEG-4 Visual
Format profile                   : Advanced Simple@L5
Format settings, BVOP            : Yes
Format settings, QPel            : No
Format settings, GMC             : No warppoints
Format settings, Matrix          : Custom
Codec ID                         : XVID
Codec ID/Hint                    : XviD
Duration                         : 2h 9mn
Bit rate                         : 1 049 Kbps
Width                            : 640 pixels
Height                           : 272 pixels
Display aspect ratio             : 2.35:1
Frame rate                       : 23.976 fps
Color space                      : YUV
Chroma subsampling               : 4:2:0
Bit depth                        : 8 bits
Scan type                        : Progressive
Bits/(Pixel*Frame)               : 0.251
Stream size                      : 969 MiB (73%)
Writing library                  : XviD 1.2.1 (UTC 2008-12-04)

Audio
ID                               : 1
Format                           : AC-3
Format/Info                      : Audio Coding 3
Mode extension                   : CM (complete main)
Codec ID                         : 2000
Duration                         : 2h 9mn
Bit rate mode                    : Constant
Bit rate                         : 384 Kbps
Channel(s)                       : 6 channels
Channel positions                : Front: L C R, Side: L R, LFE
Sampling rate                    : 48.0 KHz
Bit depth                        : 16 bits
Video delay                      : 17ms
Stream size                      : 355 MiB (27%)
Alignment                        : Split accross interleaves
Interleave, duration             : 42 ms (1.00 video frame)
Interleave, preload duration     : 500 ms




[url]http://www.imdb.com/title/tt1212419/[/url]




[IMG]http://leetleech.org/images/89524873606771859129.png[/IMG]


Users: 7.1/10 (8,176 votes) 155 reviews | Critics: 214 reviews Metascore: 56/100 (based on 42 reviews from Metacritic.com)

A drama centered on three people -- a blue-collar American, a French journalist and a London school boy -- who are touched by death in different ways.
Director:
Clint Eastwood
Writer:
Peter Morgan
Stars:
Matt Damon, Cécile De France and Bryce Dallas Howard




[img]http://leetleech.org/images/95521316153253938506.png[/img]




[img]http://img543.imageshack.us/img543/6586/vlcsnap2011022616h51m04.png[/img]

[img]http://img703.imageshack.us/img703/1464/vlcsnap2011022616h50m08.png[/img]

[img]http://img651.imageshack.us/img651/4518/vlcsnap2011022616h50m44.png[/img]







Greetz to Imagine ,Flawl3ss ,Santi ,Vision ,Kingdom, BDK, TOXiC, iNK, THC, Ez, Rx,





[img]http://img411.imageshack.us/img411/6898/sig1n.jpg[/img]




